KRSPY-parametric-WideBlackMinGrade-maxXOPQmaxYOPQminXTRA.ufo
<glyph name="comma" format="2">
  <advance width="422"/>
  <unicode hex="002C"/>
  <outline>
    <contour>
      <point x="178" y="-202" type="line"/>
      <point x="389" y="0" type="line"/>
      <point x="389" y="397" type="line"/>
      <point x="-257" y="397" type="line"/>
      <point x="-341" y="308" type="line"/>
      <point x="-341" y="0" type="line"/>
      <point x="72" y="0" type="line"/>
      <point x="72" y="-202" type="line"/>
    </contour>
  </outline>
</glyph>
<glyph name="three" format="2">
  <advance width="1795"/>
  <unicode hex="0033"/>
  <outline>
    <contour>
      <point x="105" y="0" type="line" identifier="O9abUc1nmN"/>
      <point x="1676" y="0" type="line" identifier="kMJYMTfXCq"/>
      <point x="1676" y="906" type="line" identifier="su2XmdS8e8"/>
      <point x="1537" y="974" type="line" identifier="JQaOzDQqlF"/>
      <point x="1537" y="977" type="line"/>
      <point x="1642" y="1066" type="line" identifier="S91TzLL02W"/>
      <point x="1642" y="1600" type="line" identifier="xg8x2Ki40p"/>
      <point x="108" y="1600" type="line" identifier="pE1XSRiy68"/>
      <point x="108" y="920" type="line" identifier="5lNstGRcSF"/>
      <point x="838" y="920" type="line" identifier="AcE5xKDZfE"/>
      <point x="838" y="1184" type="line" identifier="7ogBYufWpl"/>
      <point x="911" y="1184" type="line" identifier="RHLvSX2Jv6"/>
      <point x="911" y="1050" type="line" identifier="YUjTrmoWd9"/>
      <point x="814" y="987" type="line"/>
      <point x="814" y="983" type="line" identifier="iic1IBkDqp"/>
      <point x="203" y="983" type="line" identifier="lRLJEhXMlO"/>
      <point x="203" y="567" type="line" identifier="8aKgEELrVU"/>
      <point x="946" y="567" type="line" identifier="Dm8zjmbhNr"/>
      <point x="946" y="416" type="line" identifier="xv9CFHiFgB"/>
      <point x="835" y="416" type="line" identifier="YajKQV3MHP"/>
      <point x="835" y="625" type="line" identifier="36SchVkwze"/>
      <point x="105" y="625" type="line" identifier="tVui9PiOjA"/>
    </contour>
  </outline>
</glyph>
<glyph name="four" format="2">
  <advance width="1877"/>
  <unicode hex="0034"/>
  <outline>
    <contour>
      <point x="932" y="0" type="line"/>
      <point x="1662" y="0" type="line"/>
      <point x="1662" y="578" type="line"/>
      <point x="1768" y="578" type="line"/>
      <point x="1768" y="994" type="line"/>
      <point x="1662" y="994" type="line"/>
      <point x="1662" y="1600" type="line"/>
      <point x="932" y="1600" type="line"/>
      <point x="932" y="994" type="line"/>
      <point x="839" y="994" type="line"/>
      <point x="839" y="1039" type="line"/>
      <point x="936" y="1680" type="line"/>
      <point x="222" y="1680" type="line"/>
      <point x="109" y="1038" type="line"/>
      <point x="109" y="578" type="line"/>
      <point x="932" y="578" type="line"/>
    </contour>
  </outline>
</glyph>
<glyph name="six" format="2">
  <advance width="1762"/>
  <unicode hex="0036"/>
  <outline>
    <contour>
      <point x="101" y="0" type="line" identifier="uiw6aBUf4P"/>
      <point x="1673" y="0" type="line" identifier="jtYkxiUX6G"/>
      <point x="1673" y="963" type="line" identifier="2G5L37c87I"/>
      <point x="831" y="963" type="line"/>
      <point x="831" y="994" type="line"/>
      <point x="868" y="1184" type="line"/>
      <point x="942" y="1184" type="line"/>
      <point x="942" y="902" type="line"/>
      <point x="1671" y="902" type="line" identifier="Wuidbv6mUe"/>
      <point x="1671" y="1600" type="line" identifier="oGvEEuxnYv"/>
      <point x="206" y="1600" type="line" identifier="xR3pEHbMJx"/>
      <point x="101" y="995" type="line" identifier="KnMArb0tv8"/>
    </contour>
    <contour>
      <point x="943" y="547" type="line"/>
      <point x="943" y="416" type="line"/>
      <point x="831" y="416" type="line"/>
      <point x="831" y="547" type="line"/>
    </contour>
  </outline>
</glyph>
<glyph name="B" format="2">
  <advance width="1796"/>
  <unicode hex="0042"/>
  <outline>
    <contour>
      <point x="120" y="0" type="line" identifier="hvY9r8RmLr"/>
      <point x="1693" y="0" type="line" identifier="9QFpw7nfq7"/>
      <point x="1693" y="589" type="line" identifier="543PerILpr"/>
      <point x="1568" y="795" type="line" identifier="zhomauHW30"/>
      <point x="1568" y="797" type="line" identifier="870ZhtaozS"/>
      <point x="1689" y="1007" type="line" identifier="eGKH52Jgnk"/>
      <point x="1689" y="1600" type="line" identifier="FaP204GrdB"/>
      <point x="120" y="1600" type="line" identifier="JEev70GAj6"/>
    </contour>
    <contour>
      <point x="850" y="1004" type="line" identifier="By7dfMihfe"/>
      <point x="850" y="1184" type="line" identifier="1p5hKrurVy"/>
      <point x="959" y="1184" type="line" identifier="Qby8aMtF2X"/>
      <point x="959" y="1069" type="line" identifier="9lW01gQyU2"/>
      <point x="920" y="1004" type="line" identifier="xpxyvIzPoc"/>
    </contour>
    <contour>
      <point x="850" y="416" type="line" identifier="jaMSiLrCua"/>
      <point x="850" y="587" type="line" identifier="XSrxNd2axx"/>
      <point x="920" y="587" type="line" identifier="VyYlzRh5nq"/>
      <point x="963" y="530" type="line" identifier="lsRGatjQja"/>
      <point x="963" y="416" type="line" identifier="xhlDJ3CjD5"/>
    </contour>
  </outline>
</glyph>
<glyph name="C" format="2">
  <advance width="1761"/>
  <unicode hex="0043"/>
  <outline>
    <contour>
      <point x="102" y="0" type="line" identifier="7lPhzTnk2Z"/>
      <point x="1668" y="0" type="line" identifier="qJVLZGnkwh"/>
      <point x="1668" y="671" type="line" identifier="nDnDHzAMXL"/>
      <point x="938" y="671" type="line" identifier="QX1V08aTu0"/>
      <point x="938" y="416" type="line" identifier="Y750RHTvDj"/>
      <point x="832" y="416" type="line" identifier="L2LsGnXiZ2"/>
      <point x="832" y="957" type="line" identifier="sUWsr03vF4"/>
      <point x="882" y="1184" type="line" identifier="dbOUe6OhxL"/>
      <point x="942" y="1184" type="line" identifier="5BjRbcud80"/>
      <point x="942" y="854" type="line" identifier="fNVDqwQo2o"/>
      <point x="1672" y="854" type="line" identifier="wLqQQx7QVN"/>
      <point x="1672" y="1600" type="line" identifier="9eJelv8BOw"/>
      <point x="239" y="1600" type="line" identifier="lfZev3ICaC"/>
      <point x="102" y="1000" type="line" identifier="V1EWIdPahq"/>
    </contour>
  </outline>
</glyph>
<glyph name="E" format="2">
  <advance width="1622"/>
  <unicode hex="0045"/>
  <outline>
    <contour>
      <point x="111" y="0" type="line" identifier="fZynkQ4XHB"/>
      <point x="1540" y="0" type="line" identifier="FAQNpgUPxV"/>
      <point x="1540" y="611" type="line" identifier="gHI0YjrPxR"/>
      <point x="911" y="611" type="line" identifier="gxCIuXb4el"/>
      <point x="911" y="416" type="line" identifier="5cgTYOhATF"/>
      <point x="841" y="416" type="line" identifier="bWs42DaCgU"/>
      <point x="841" y="589" type="line" identifier="VtD2aADJmn"/>
      <point x="1383" y="589" type="line" identifier="PpbsFdHAnS"/>
      <point x="1383" y="1006" type="line" identifier="8WuC5p8Ax5"/>
      <point x="841" y="1006" type="line" identifier="m39IWn9ntA"/>
      <point x="841" y="1184" type="line" identifier="gQ21I4SHQg"/>
      <point x="910" y="1184" type="line" identifier="eqNb2VTwYs"/>
      <point x="910" y="1033" type="line" identifier="mLmcFoJA4m"/>
      <point x="1539" y="1033" type="line" identifier="e79n7CoPy1"/>
      <point x="1539" y="1600" type="line" identifier="qYRmo14Il5"/>
      <point x="111" y="1600" type="line" identifier="HmJIcnLWfC"/>
    </contour>
  </outline>
</glyph>
<glyph name="J" format="2">
  <advance width="1749"/>
  <unicode hex="004A"/>
  <outline>
    <contour>
      <point x="185" y="0" type="line" identifier="jiO9eX9U07"/>
      <point x="1631" y="0" type="line" identifier="wgpFs1yguc"/>
      <point x="1631" y="1600" type="line" identifier="d5Di3vNzni"/>
      <point x="114" y="1600" type="line" identifier="TbrXnCyMEi"/>
      <point x="114" y="1184" type="line" identifier="AdYfGKx8QJ"/>
      <point x="901" y="1184" type="line" identifier="46RrD1WET2"/>
      <point x="901" y="416" type="line" identifier="zFXsE8BUYG"/>
      <point x="868" y="416" type="line" identifier="NQmE31PUns"/>
      <point x="817" y="838" type="line" identifier="qiXxY6YhCq"/>
      <point x="87" y="838" type="line" identifier="7exNZv1XSc"/>
    </contour>
  </outline>
</glyph>
<glyph name="M" format="2">
  <advance width="3055"/>
  <unicode hex="004D"/>
  <outline>
    <contour>
      <point x="932" y="120" type="line" identifier="0Dn4Xpf57M"/>
      <point x="885" y="1184" type="line"/>
      <point x="841" y="1184" type="line"/>
      <point x="841" y="0" type="line"/>
      <point x="195" y="0" type="line"/>
      <point x="195" y="1600" type="line"/>
      <point x="1489" y="1600" type="line"/>
      <point x="1513" y="502" type="line"/>
      <point x="1542" y="502" type="line" identifier="9aKZPM0HPh"/>
      <point x="1565" y="1600" type="line"/>
      <point x="2859" y="1600" type="line"/>
      <point x="2859" y="0" type="line"/>
      <point x="2213" y="0" type="line"/>
      <point x="2213" y="1184" type="line"/>
      <point x="2170" y="1184" type="line"/>
      <point x="2122" y="120" type="line" identifier="spdoeeCFft"/>
    </contour>
  </outline>
</glyph>
<glyph name="R" format="2">
  <advance width="1785"/>
  <unicode hex="0052"/>
  <outline>
    <contour>
      <point x="849" y="779" type="line"/>
      <point x="849" y="1184" type="line"/>
      <point x="958" y="1184" type="line"/>
      <point x="958" y="923" type="line"/>
      <point x="922" y="892" type="line"/>
    </contour>
    <contour>
      <point x="1683" y="0" type="line"/>
      <point x="1566" y="709" type="line"/>
      <point x="1688" y="827" type="line"/>
      <point x="1688" y="1600" type="line"/>
      <point x="119" y="1600" type="line"/>
      <point x="119" y="0" type="line"/>
      <point x="849" y="0" type="line"/>
      <point x="849" y="362" type="line"/>
      <point x="931" y="475" type="line"/>
      <point x="978" y="0" type="line"/>
    </contour>
  </outline>
</glyph>
<glyph name="S" format="2">
  <advance width="1699"/>
  <unicode hex="0053"/>
  <outline>
    <contour>
      <point x="101" y="0" type="line" identifier="09VlJ0BjUX"/>
      <point x="1601" y="0" type="line" identifier="EagWihqFM8"/>
      <point x="1601" y="995" type="line" identifier="KfNuQA7eZe"/>
      <point x="825" y="995" type="line" identifier="At364YZFEy"/>
      <point x="825" y="1062" type="line"/>
      <point x="860" y="1184" type="line"/>
      <point x="868" y="1184" type="line" identifier="3ZUkG35meB"/>
      <point x="868" y="1069" type="line" identifier="DTOJhFIl15"/>
      <point x="1599" y="1069" type="line" identifier="9KDcrfQ5Ui"/>
      <point x="1599" y="1600" type="line" identifier="SaF9ojRFrW"/>
      <point x="253" y="1600" type="line"/>
      <point x="103" y="1112" type="line"/>
      <point x="103" y="578" type="line" identifier="3sQ8t8BZ6b"/>
      <point x="870" y="578" type="line" identifier="yiV6OCBLHg"/>
      <point x="870" y="416" type="line" identifier="9kdl9SYsn8"/>
      <point x="831" y="416" type="line" identifier="yZDWuX8LLe"/>
      <point x="831" y="563" type="line" identifier="jYb9001DTm"/>
      <point x="101" y="563" type="line" identifier="ho4DrS0rdW"/>
    </contour>
  </outline>
</glyph>
<glyph name="U" format="2">
  <advance width="1828"/>
  <unicode hex="0055"/>
  <outline>
    <contour>
      <point x="960" y="1600" type="line" smooth="yes"/>
      <point x="960" y="416" type="line"/>
      <point x="917" y="416" type="line" smooth="yes"/>
      <point x="849" y="520" type="line" smooth="yes"/>
      <point x="849" y="1600" type="line"/>
      <point x="119" y="1600" type="line" smooth="yes"/>
      <point x="119" y="495" type="line" smooth="yes"/>
      <point x="358" y="0" type="line" smooth="yes"/>
      <point x="1691" y="0" type="line" smooth="yes"/>
      <point x="1691" y="1600" type="line" smooth="yes"/>
    </contour>
  </outline>
</glyph>
<glyph name="W" format="2">
  <advance width="2696"/>
  <unicode hex="0057"/>
  <outline>
    <contour>
      <point x="907" y="1600" type="line" smooth="yes" identifier="12Pyby1xY2"/>
      <point x="176" y="1600" type="line" smooth="yes" identifier="5LJg4ajoG6"/>
      <point x="176" y="0" type="line" smooth="yes" identifier="ZqTZqAY3uY"/>
      <point x="1207" y="0" type="line" smooth="yes" identifier="rCeQLyjlsN"/>
      <point x="1262" y="92" type="line"/>
      <point x="1277" y="92" type="line"/>
      <point x="1277" y="0" type="line" smooth="yes" identifier="Pkl7cZ37MU"/>
      <point x="2358" y="0" type="line" smooth="yes" identifier="R4lklfJsHA"/>
      <point x="2538" y="554" type="line" smooth="yes" identifier="7g7f8Wu7K4"/>
      <point x="2538" y="1600" type="line" smooth="yes" identifier="RTOJW56qXy"/>
      <point x="1807" y="1600" type="line" identifier="JfSFAkWGZC"/>
      <point x="1807" y="544" type="line" smooth="yes" identifier="WWvGwSpq0g"/>
      <point x="1765" y="416" type="line" smooth="yes" identifier="oee4nqI8Wl"/>
      <point x="1732" y="416" type="line" identifier="Ljn2lpvpG8"/>
      <point x="1732" y="668" type="line"/>
      <point x="1732" y="1330" type="line" smooth="yes"/>
      <point x="1002" y="1330" type="line"/>
      <point x="1002" y="630" type="line"/>
      <point x="1003" y="624" type="line"/>
      <point x="907" y="416" type="line" identifier="GlWB6PG54Z"/>
      <point x="907" y="416" type="line" identifier="iqeTRv7HXg"/>
    </contour>
  </outline>
</glyph>
<glyph name="X" format="2">
  <advance width="1824"/>
  <unicode hex="0058"/>
  <outline>
    <contour>
      <point x="911" y="592" type="line"/>
      <point x="975" y="546" type="line"/>
      <point x="975" y="0" type="line"/>
      <point x="1705" y="0" type="line"/>
      <point x="1705" y="585" type="line"/>
      <point x="1558" y="799" type="line"/>
      <point x="1558" y="801" type="line"/>
      <point x="1701" y="1012" type="line"/>
      <point x="1701" y="1600" type="line"/>
      <point x="971" y="1600" type="line"/>
      <point x="971" y="1051" type="line"/>
      <point x="911" y="1008" type="line"/>
      <point x="913" y="1008" type="line"/>
      <point x="853" y="1051" type="line"/>
      <point x="853" y="1600" type="line"/>
      <point x="123" y="1600" type="line"/>
      <point x="123" y="1012" type="line"/>
      <point x="266" y="801" type="line"/>
      <point x="266" y="799" type="line"/>
      <point x="119" y="585" type="line"/>
      <point x="119" y="0" type="line"/>
      <point x="849" y="0" type="line"/>
      <point x="849" y="546" type="line"/>
      <point x="913" y="592" type="line"/>
    </contour>
  </outline>
</glyph>
<glyph name="B.narrow" format="2">
  <advance width="1795"/>
  <outline>
    <contour>
      <point x="120" y="0" type="line" identifier="hvY9r8RmLr"/>
      <point x="1692" y="0" type="line" identifier="9QFpw7nfq7"/>
      <point x="1692" y="571" type="line" identifier="543PerILpr"/>
      <point x="1542" y="763" type="line" identifier="870ZhtaozS"/>
      <point x="1688" y="849" type="line" identifier="eGKH52Jgnk"/>
      <point x="1688" y="1600" type="line" identifier="FaP204GrdB"/>
      <point x="120" y="1600" type="line" identifier="JEev70GAj6"/>
    </contour>
    <contour>
      <point x="850" y="893" type="line" identifier="By7dfMihfe"/>
      <point x="850" y="1184" type="line" identifier="1p5hKrurVy"/>
      <point x="959" y="1184" type="line" identifier="Qby8aMtF2X"/>
      <point x="959" y="940" type="line" identifier="9lW01gQyU2"/>
    </contour>
    <contour>
      <point x="850" y="416" type="line" identifier="jaMSiLrCua"/>
      <point x="850" y="530" type="line" identifier="XSrxNd2axx"/>
      <point x="895" y="547" type="line" identifier="VyYlzRh5nq"/>
      <point x="960" y="454" type="line" identifier="lsRGatjQja"/>
      <point x="960" y="416" type="line" identifier="xhlDJ3CjD5"/>
    </contour>
  </outline>
</glyph>
<glyph name="E.wide" format="2">
  <advance width="1510"/>
  <outline>
    <contour>
      <point x="122" y="0" type="line" identifier="fZynkQ4XHB"/>
      <point x="1418" y="0" type="line" identifier="FAQNpgUPxV"/>
      <point x="1418" y="399" type="line" identifier="5cgTYOhATF"/>
      <point x="853" y="399" type="line" identifier="bWs42DaCgU"/>
      <point x="853" y="610" type="line" identifier="VtD2aADJmn"/>
      <point x="1356" y="610" type="line" identifier="PpbsFdHAnS"/>
      <point x="1356" y="991" type="line" identifier="8WuC5p8Ax5"/>
      <point x="853" y="991" type="line" identifier="m39IWn9ntA"/>
      <point x="853" y="1211" type="line" identifier="gQ21I4SHQg"/>
      <point x="1417" y="1211" type="line" identifier="eqNb2VTwYs"/>
      <point x="1417" y="1600" type="line" identifier="qYRmo14Il5"/>
      <point x="122" y="1600" type="line" identifier="HmJIcnLWfC"/>
    </contour>
  </outline>
</glyph>
<glyph name="F.wide" format="2">
  <advance width="1611"/>
  <outline>
    <contour>
      <point x="127" y="0" type="line" identifier="oAgH2tA6DJ"/>
      <point x="858" y="0" type="line" identifier="zCZyMcW5ho"/>
      <point x="858" y="358" type="line" identifier="yHYqkMd7LI"/>
      <point x="1412" y="358" type="line" identifier="NmB7yyQuio"/>
      <point x="1412" y="774" type="line" identifier="wQk2C8zPHh"/>
      <point x="858" y="774" type="line" identifier="4cFHKQfHDt"/>
      <point x="858" y="1184" type="line" identifier="ZvzwyrcwpS"/>
      <point x="1514" y="1184" type="line" identifier="4E754ovOIe"/>
      <point x="1514" y="1600" type="line" identifier="NUrIjqOB7J"/>
      <point x="127" y="1600" type="line" identifier="TBAYuCfUFX"/>
    </contour>
  </outline>
</glyph>
<glyph name="I.narrow" format="2">
  <advance width="889"/>
  <outline>
    <contour>
      <point x="810" y="-1" type="line" identifier="1m237t4hyw"/>
      <point x="810" y="1601" type="line" identifier="v7N4yg5XNk"/>
      <point x="79" y="1601" type="line" identifier="zfocDyDTCM"/>
      <point x="79" y="-1" type="line" identifier="S4rO5KuHiL"/>
    </contour>
  </outline>
</glyph>
<glyph name="K.alt" format="2">
  <advance width="1928"/>
  <outline>
    <contour>
      <point x="901" y="0" type="line" identifier="wmNm7XZsaF"/>
      <point x="901" y="619" type="line" identifier="O22liaP9Qk"/>
      <point x="950" y="619" type="line" identifier="ELFBWIb1vd"/>
      <point x="1013" y="544" type="line" identifier="DzXo67YEfw"/>
      <point x="1013" y="0" type="line" identifier="aKpYWD78l2"/>
      <point x="1744" y="0" type="line" identifier="ChS7KlqGi6"/>
      <point x="1744" y="744" type="line" identifier="sWLgkU8Vey"/>
      <point x="1596" y="906" type="line" identifier="Of0iQc0wBG"/>
      <point x="1748" y="1600" type="line" identifier="dMJ1ywOKQQ"/>
      <point x="1027" y="1600" type="line" identifier="08OWjR2YBJ"/>
      <point x="957" y="1035" type="line" identifier="g4YLdZEoM3"/>
      <point x="901" y="1035" type="line" identifier="uZuki3Isec"/>
      <point x="901" y="1600" type="line" identifier="nRfcNgqJ4H"/>
      <point x="171" y="1600" type="line" identifier="3XJlWt89ad"/>
      <point x="171" y="0" type="line" identifier="wdbO8kCovY"/>
    </contour>
  </outline>
</glyph>
<glyph name="K.narrow" format="2">
  <advance width="1793"/>
  <outline>
    <contour>
      <point x="849" y="0" type="line"/>
      <point x="849" y="602" type="line"/>
      <point x="927" y="648" type="line"/>
      <point x="996" y="0" type="line"/>
      <point x="1692" y="0" type="line"/>
      <point x="1539" y="813" type="line"/>
      <point x="1667" y="842" type="line"/>
      <point x="1667" y="1600" type="line"/>
      <point x="938" y="1600" type="line"/>
      <point x="938" y="1064" type="line"/>
      <point x="849" y="1018" type="line"/>
      <point x="849" y="1600" type="line"/>
      <point x="119" y="1600" type="line"/>
      <point x="119" y="0" type="line"/>
    </contour>
  </outline>
</glyph>
<glyph name="N.narrow" format="2">
  <advance width="1796"/>
  <outline>
    <contour>
      <point x="120" y="0" type="line" smooth="yes"/>
      <point x="850" y="0" type="line"/>
      <point x="850" y="637" type="line"/>
      <point x="939" y="1093" type="line"/>
      <point x="946" y="1093" type="line"/>
      <point x="946" y="0" type="line" smooth="yes"/>
      <point x="1676" y="0" type="line" smooth="yes"/>
      <point x="1676" y="1600" type="line" smooth="yes"/>
      <point x="918" y="1600" type="line" smooth="yes"/>
      <point x="859" y="1388" type="line"/>
      <point x="845" y="1388" type="line"/>
      <point x="845" y="1600" type="line"/>
      <point x="120" y="1600" type="line"/>
    </contour>
  </outline>
</glyph>
<glyph name="N.wide" format="2">
  <advance width="2317"/>
  <outline>
    <contour>
      <point x="145" y="0" type="line" identifier="CkwYPPvJLv"/>
      <point x="875" y="0" type="line" identifier="oHTJsN7drZ"/>
      <point x="875" y="1030" type="line" identifier="wfBbYd10Pm"/>
      <point x="887" y="1030" type="line" identifier="MEnBDHq6zU"/>
      <point x="1451" y="0" type="line" identifier="3Nbopwznvn"/>
      <point x="2171" y="0" type="line" identifier="uKfuudIUvA"/>
      <point x="2171" y="1600" type="line" identifier="XRdLFXiM4t"/>
      <point x="1441" y="1600" type="line" identifier="MUSJPjCIXg"/>
      <point x="1441" y="618" type="line" identifier="VILP20cFmq"/>
      <point x="1440" y="618" type="line" identifier="z5b04GDwRN"/>
      <point x="904" y="1600" type="line" identifier="LL64NQ6WBE"/>
      <point x="145" y="1600" type="line" identifier="dzUaaP1sjt"/>
    </contour>
  </outline>
</glyph>
<glyph name="R.alt" format="2">
  <advance width="1969"/>
  <outline>
    <contour>
      <point x="932" y="918" type="line"/>
      <point x="932" y="1184" type="line"/>
      <point x="1040" y="1184" type="line"/>
      <point x="1040" y="918" type="line"/>
    </contour>
    <contour>
      <point x="1777" y="0" type="line"/>
      <point x="1644" y="611" type="line"/>
      <point x="1770" y="666" type="line"/>
      <point x="1770" y="1600" type="line"/>
      <point x="202" y="1600" type="line"/>
      <point x="202" y="0" type="line"/>
      <point x="932" y="0" type="line"/>
      <point x="932" y="502" type="line"/>
      <point x="1022" y="500" type="line"/>
      <point x="1115" y="0" type="line"/>
    </contour>
  </outline>
</glyph>
<glyph name="S.wide" format="2">
  <advance width="1592"/>
  <outline>
    <contour>
      <point x="80" y="0" type="line" identifier="09VlJ0BjUX"/>
      <point x="1511" y="0" type="line" identifier="EagWihqFM8"/>
      <point x="1511" y="981" type="line" identifier="KfNuQA7eZe"/>
      <point x="726" y="981" type="line" identifier="At364YZFEy"/>
      <point x="726" y="1062" type="line"/>
      <point x="761" y="1184" type="line"/>
      <point x="1511" y="1184" type="line" identifier="3ZUkG35meB"/>
      <point x="1511" y="1600" type="line" identifier="SaF9ojRFrW"/>
      <point x="236" y="1600" type="line"/>
      <point x="86" y="1112" type="line"/>
      <point x="86" y="619" type="line" identifier="3sQ8t8BZ6b"/>
      <point x="780" y="619" type="line" identifier="yiV6OCBLHg"/>
      <point x="780" y="416" type="line" identifier="9kdl9SYsn8"/>
      <point x="80" y="416" type="line" identifier="yZDWuX8LLe"/>
    </contour>
  </outline>
</glyph>
<glyph name="Y.alt" format="2">
  <advance width="1758"/>
  <outline>
    <contour>
      <point x="116" y="416" type="line"/>
      <point x="116" y="0" type="line"/>
      <point x="1639" y="0" type="line" identifier="oOtn61SmRY"/>
      <point x="1639" y="1600" type="line" identifier="8OglXgblhr"/>
      <point x="909" y="1600" type="line" identifier="db0bPhBdaU"/>
      <point x="909" y="1008" type="line" identifier="MTAeavIVWY"/>
      <point x="815" y="1008" type="line" identifier="lggLiivmLt"/>
      <point x="815" y="1600" type="line" identifier="UPaHY3UudR"/>
      <point x="85" y="1600" type="line" identifier="ZnCDQVdtyD"/>
      <point x="85" y="592" type="line" identifier="uqAJBjDIOT"/>
      <point x="909" y="592" type="line" identifier="7JgTtdb0jg"/>
      <point x="909" y="416" type="line"/>
    </contour>
  </outline>
</glyph>
<glyph name="Z.wide" format="2">
  <advance width="1793"/>
  <outline>
    <contour>
      <point x="105" y="0" type="line"/>
      <point x="1677" y="0" type="line" identifier="pzdvPTirLJ"/>
      <point x="1677" y="416" type="line"/>
      <point x="835" y="416" type="line"/>
      <point x="835" y="555" type="line"/>
      <point x="1687" y="1256" type="line" identifier="yyb1NCCI5w"/>
      <point x="1687" y="1600" type="line" identifier="5FogYRSgkk"/>
      <point x="109" y="1600" type="line" identifier="svlFvrau4c"/>
      <point x="109" y="1184" type="line"/>
      <point x="953" y="1184" type="line"/>
      <point x="953" y="1240" type="line"/>
      <point x="105" y="558" type="line" identifier="teVKnpBcVb"/>
    </contour>
  </outline>
</glyph>
<glyph name="six.wide" format="2">
  <advance width="1935"/>
  <outline>
    <contour>
      <point x="180" y="0" type="line" identifier="uiw6aBUf4P"/>
      <point x="1753" y="0" type="line" identifier="jtYkxiUX6G"/>
      <point x="1753" y="918" type="line" identifier="2G5L37c87I"/>
      <point x="910" y="918" type="line"/>
      <point x="910" y="1079" type="line"/>
      <point x="928" y="1184" type="line"/>
      <point x="1751" y="1184" type="line"/>
      <point x="1751" y="1600" type="line" identifier="oGvEEuxnYv"/>
      <point x="226" y="1600" type="line" identifier="xR3pEHbMJx"/>
      <point x="180" y="1080" type="line" identifier="KnMArb0tv8"/>
    </contour>
    <contour>
      <point x="1022" y="574" type="line"/>
      <point x="1022" y="416" type="line"/>
      <point x="910" y="416" type="line"/>
      <point x="910" y="574" type="line"/>
    </contour>
  </outline>
</glyph>
<glyph name="three.wide" format="2">
  <advance width="1687"/>
  <outline>
    <contour>
      <point x="85" y="0" type="line" identifier="O9abUc1nmN"/>
      <point x="1572" y="0" type="line" identifier="kMJYMTfXCq"/>
      <point x="1572" y="902" type="line" identifier="su2XmdS8e8"/>
      <point x="1433" y="902" type="line" identifier="JQaOzDQqlF"/>
      <point x="1433" y="905" type="line"/>
      <point x="1520" y="969" type="line" identifier="S91TzLL02W"/>
      <point x="1520" y="1600" type="line" identifier="xg8x2Ki40p"/>
      <point x="87" y="1600" type="line" identifier="pE1XSRiy68"/>
      <point x="87" y="1175" type="line" identifier="7ogBYufWpl"/>
      <point x="790" y="1175" type="line" identifier="RHLvSX2Jv6"/>
      <point x="790" y="969" type="line" identifier="YUjTrmoWd9"/>
      <point x="709" y="906" type="line"/>
      <point x="709" y="902" type="line" identifier="iic1IBkDqp"/>
      <point x="182" y="902" type="line" identifier="lRLJEhXMlO"/>
      <point x="182" y="648" type="line" identifier="8aKgEELrVU"/>
      <point x="842" y="648" type="line" identifier="Dm8zjmbhNr"/>
      <point x="842" y="416" type="line" identifier="xv9CFHiFgB"/>
      <point x="85" y="416" type="line" identifier="YajKQV3MHP"/>
    </contour>
  </outline>
</glyph>
